<svg width="122" height="51" viewBox="0 0 122 51" fill="none" xmlns="http://www.w3.org/2000/svg">
<path d="M75.9727 13.1543H71.6172V25H68.6875V13.1543H64.3906V10.7812H75.9727V13.1543ZM82.0512 25.1953C80.5017 25.1953 79.2387 24.7201 78.2621 23.7695C77.2921 22.819 76.807 21.5527 76.807 19.9707V19.6973C76.807 18.6361 77.0121 17.6888 77.4223 16.8555C77.8324 16.0156 78.4118 15.3711 79.1605 14.9219C79.9158 14.4661 80.7751 14.2383 81.7387 14.2383C83.184 14.2383 84.3201 14.694 85.1469 15.6055C85.9802 16.5169 86.3969 17.8092 86.3969 19.4824V20.6348H79.6684C79.7595 21.3249 80.0329 21.8783 80.4887 22.2949C80.9509 22.7116 81.5336 22.9199 82.2367 22.9199C83.324 22.9199 84.1736 22.526 84.7855 21.7383L86.1723 23.291C85.7491 23.89 85.1762 24.3587 84.4535 24.6973C83.7309 25.0293 82.9301 25.1953 82.0512 25.1953ZM81.7289 16.5234C81.169 16.5234 80.7133 16.7122 80.3617 17.0898C80.0167 17.4674 79.7953 18.0078 79.6977 18.7109H83.6234V18.4863C83.6104 17.8613 83.4411 17.3796 83.1156 17.041C82.7901 16.696 82.3279 16.5234 81.7289 16.5234ZM94.3309 22.0801C94.3309 21.735 94.1583 21.4648 93.8133 21.2695C93.4747 21.0677 92.9279 20.8887 92.1727 20.7324C89.6596 20.2051 88.4031 19.1374 88.4031 17.5293C88.4031 16.5918 88.7905 15.8105 89.5652 15.1855C90.3465 14.554 91.3654 14.2383 92.6219 14.2383C93.963 14.2383 95.034 14.554 95.8348 15.1855C96.6421 15.8171 97.0457 16.6374 97.0457 17.6465H94.2234C94.2234 17.2428 94.0932 16.9108 93.8328 16.6504C93.5724 16.3835 93.1655 16.25 92.6121 16.25C92.1368 16.25 91.769 16.3574 91.5086 16.5723C91.2482 16.7871 91.118 17.0605 91.118 17.3926C91.118 17.7051 91.2645 17.959 91.5574 18.1543C91.8569 18.3431 92.3582 18.5091 93.0613 18.6523C93.7645 18.7891 94.3569 18.9453 94.8387 19.1211C96.3296 19.668 97.075 20.6152 97.075 21.9629C97.075 22.9264 96.6616 23.7077 95.8348 24.3066C95.0079 24.8991 93.9402 25.1953 92.6316 25.1953C91.7462 25.1953 90.9585 25.0391 90.2684 24.7266C89.5848 24.4076 89.0477 23.9746 88.657 23.4277C88.2664 22.8743 88.0711 22.2786 88.0711 21.6406H90.7469C90.7729 22.1419 90.9585 22.526 91.3035 22.793C91.6486 23.0599 92.1108 23.1934 92.6902 23.1934C93.2306 23.1934 93.6375 23.0924 93.9109 22.8906C94.1909 22.6823 94.3309 22.4121 94.3309 22.0801ZM102.88 11.8359V14.4336H104.687V16.5039H102.88V21.7773C102.88 22.168 102.955 22.4479 103.105 22.6172C103.254 22.7865 103.541 22.8711 103.964 22.8711C104.277 22.8711 104.553 22.8483 104.794 22.8027V24.9414C104.241 25.1107 103.671 25.1953 103.085 25.1953C101.106 25.1953 100.097 24.196 100.058 22.1973V16.5039H98.5148V14.4336H100.058V11.8359H102.88Z" fill="#48588D"/>
<path d="M70.7622 37.4541C70.6834 38.2884 70.3755 38.9401 69.8384 39.4092C69.3013 39.8747 68.5869 40.1074 67.6953 40.1074C67.0723 40.1074 66.5226 39.9606 66.0464 39.667C65.5737 39.3698 65.2085 38.9491 64.9507 38.4048C64.6929 37.8605 64.5586 37.2285 64.5479 36.5088V35.7783C64.5479 35.0407 64.6785 34.3908 64.9399 33.8286C65.2013 33.2664 65.5755 32.8332 66.0625 32.5288C66.5531 32.2244 67.1188 32.0723 67.7598 32.0723C68.6227 32.0723 69.3174 32.3068 69.8438 32.7759C70.3701 33.245 70.6763 33.9074 70.7622 34.7632H69.4087C69.3442 34.201 69.1795 33.7964 68.9146 33.5493C68.6532 33.2987 68.2682 33.1733 67.7598 33.1733C67.1689 33.1733 66.7142 33.39 66.3955 33.8232C66.0804 34.2529 65.9193 34.8849 65.9121 35.7192V36.4121C65.9121 37.2572 66.0625 37.9017 66.3633 38.3457C66.6676 38.7897 67.1117 39.0117 67.6953 39.0117C68.2288 39.0117 68.6299 38.8918 68.8984 38.6519C69.167 38.4119 69.3371 38.0127 69.4087 37.4541H70.7622ZM78.5589 38.1792H75.5296L74.8958 40H73.4832L76.4373 32.1797H77.6565L80.616 40H79.198L78.5589 38.1792ZM75.9109 37.0835H78.1775L77.0442 33.8394L75.9109 37.0835ZM85.0665 37.0942V40H83.7076V32.1797H86.6993C87.573 32.1797 88.2659 32.4071 88.7779 32.8618C89.2936 33.3166 89.5514 33.9181 89.5514 34.6665C89.5514 35.4328 89.2989 36.029 88.794 36.4551C88.2927 36.8812 87.5891 37.0942 86.6832 37.0942H85.0665ZM85.0665 36.0039H86.6993C87.1827 36.0039 87.5515 35.8911 87.8058 35.6655C88.06 35.4364 88.1871 35.1069 88.1871 34.6772C88.1871 34.2547 88.0582 33.9181 87.8004 33.6675C87.5426 33.4132 87.1881 33.2826 86.7369 33.2754H85.0665V36.0039ZM94.3778 40H93.0243V32.1797H94.3778V40ZM103.737 33.2754H101.299V40H99.9509V33.2754H97.5339V32.1797H103.737V33.2754ZM110.702 38.1792H107.672L107.039 40H105.626L108.58 32.1797H109.799L112.759 40H111.341L110.702 38.1792ZM108.054 37.0835H110.32L109.187 33.8394L108.054 37.0835ZM117.209 38.915H120.76V40H115.85V32.1797H117.209V38.915Z" fill="#ACACAC"/>
<path opacity="0.35" d="M33.5649 46.576C31.0351 51.5866 24.0998 52.1446 20.8014 47.603L0.673957 19.8895C-1.12091 17.4181 0.909242 13.9982 3.93832 14.3905C21.0449 16.6057 38.3252 11.8672 51.9092 1.2363L52.9758 0.401553C54.5143 -0.802517 56.6153 0.921433 55.7348 2.66543L33.5649 46.576Z" fill="#8797CC"/>
<path opacity="0.5" d="M33.5652 46.5752C31.1198 51.4186 24.3321 51.7589 21.4146 47.1843L7.75034 25.7591C6.49496 23.7907 7.88489 21.2081 10.2193 21.1717C23.4187 20.966 36.1073 16.0362 45.9834 7.27659L53.5551 0.560819C54.7924 -0.536676 56.6349 0.882611 55.8894 2.35906L33.5652 46.5752Z" fill="#7085CC"/>
<path d="M33.4069 46.8889C31.1833 51.2929 24.8906 51.2807 22.6843 46.868L15.333 32.1656C14.5589 30.6174 15.4588 28.7556 17.1529 28.4003C27.367 26.2586 36.6268 20.902 43.5755 13.1155L54.3546 1.03671C55.1334 0.163955 56.5206 1.10903 55.9934 2.15324L33.4069 46.8889Z" fill="#48588D"/>
</svg>
